<svg aria-hidden="true" style="" version="1.1" xmlns="http://www.w3.org/2000/svg"
    xmlns:xlink="http://www.w3.org/1999/xlink">
    <defs>
        <symbol id="logo" viewBox="0 0 198 32">
            <path fill="#202020" style="fill: var(--color1, #202020)"
                d="M190.226 24.444c-1.343 0-2.532-0.297-3.567-0.892-1.013-0.617-1.805-1.442-2.378-2.477v10.075h-4.426v-24.345h3.865v2.973c0.661-1.013 1.498-1.806 2.51-2.378 1.014-0.595 2.17-0.892 3.468-0.892 1.167 0 2.236 0.231 3.204 0.694 0.991 0.462 1.85 1.112 2.577 1.949 0.727 0.815 1.288 1.762 1.685 2.841 0.419 1.057 0.628 2.202 0.628 3.435 0 1.674-0.33 3.193-0.991 4.558-0.638 1.365-1.53 2.455-2.676 3.27-1.123 0.793-2.422 1.189-3.898 1.189zM188.739 20.678c0.683 0 1.3-0.143 1.85-0.429 0.551-0.286 1.024-0.672 1.42-1.156 0.419-0.507 0.727-1.068 0.925-1.685 0.221-0.639 0.33-1.299 0.33-1.982 0-0.727-0.121-1.398-0.363-2.015-0.22-0.617-0.55-1.156-0.991-1.619-0.44-0.485-0.958-0.859-1.553-1.123-0.572-0.264-1.199-0.396-1.883-0.396-0.418 0-0.847 0.077-1.288 0.231-0.418 0.132-0.826 0.33-1.222 0.595s-0.748 0.572-1.057 0.925c-0.286 0.352-0.495 0.738-0.628 1.156v4.063c0.264 0.639 0.617 1.222 1.057 1.751 0.462 0.529 0.991 0.947 1.586 1.255 0.595 0.286 1.201 0.429 1.817 0.429z"></path>
            <path fill="#202020" style="fill: var(--color1, #202020)"
                d="M169.29 24.444c-1.343 0-2.532-0.297-3.567-0.892-1.013-0.617-1.805-1.442-2.378-2.477v10.075h-4.426v-24.345h3.865v2.973c0.661-1.013 1.498-1.806 2.51-2.378 1.013-0.595 2.169-0.892 3.468-0.892 1.167 0 2.235 0.231 3.204 0.694 0.991 0.462 1.85 1.112 2.577 1.949 0.727 0.815 1.288 1.762 1.685 2.841 0.418 1.057 0.628 2.202 0.628 3.435 0 1.674-0.33 3.193-0.991 4.558-0.639 1.365-1.531 2.455-2.676 3.27-1.123 0.793-2.423 1.189-3.898 1.189zM167.804 20.678c0.682 0 1.3-0.143 1.85-0.429s1.024-0.672 1.42-1.156c0.418-0.507 0.727-1.068 0.925-1.685 0.22-0.639 0.33-1.299 0.33-1.982 0-0.727-0.121-1.398-0.363-2.015-0.22-0.617-0.55-1.156-0.991-1.619-0.441-0.485-0.958-0.859-1.553-1.123-0.573-0.264-1.201-0.396-1.883-0.396-0.418 0-0.847 0.077-1.288 0.231-0.418 0.132-0.826 0.33-1.222 0.595s-0.748 0.572-1.057 0.925c-0.286 0.352-0.495 0.738-0.628 1.156v4.063c0.264 0.639 0.616 1.222 1.057 1.751 0.462 0.529 0.991 0.947 1.586 1.255 0.595 0.286 1.201 0.429 1.817 0.429z"></path>
            <path fill="#202020" style="fill: var(--color1, #202020)"
                d="M143.529 0.661h4.625l8.621 23.453h-4.691l-2.18-5.847h-8.192l-2.147 5.847h-4.691l8.654-23.453zM149.079 15.063l-3.237-9.678-3.369 9.678h6.606z"></path>
            <path fill="#f5f4f4" style="fill: var(--color2, #f5f4f4)"
                d="M135.741 10.636c-1.344 0-2.543 0.264-3.601 0.793-1.057 0.507-1.817 1.244-2.279 2.213v10.471h-4.426v-17.309h4.063v3.7c0.616-1.189 1.398-2.125 2.345-2.808 0.947-0.683 1.949-1.057 3.006-1.123 0.242 0 0.429 0 0.562 0s0.242 0.011 0.33 0.033v4.030z"></path>
            <path fill="#f5f4f4" style="fill: var(--color2, #f5f4f4)"
                d="M113.688 24.444c-1.387 0-2.643-0.231-3.766-0.694-1.123-0.485-2.081-1.134-2.874-1.949-0.793-0.837-1.41-1.784-1.85-2.841-0.419-1.079-0.628-2.213-0.628-3.402 0-1.652 0.363-3.16 1.090-4.525 0.748-1.365 1.805-2.455 3.171-3.27 1.387-0.837 3.016-1.255 4.889-1.255 1.893 0 3.512 0.418 4.856 1.255 1.343 0.815 2.367 1.905 3.072 3.27 0.727 1.343 1.090 2.797 1.090 4.36 0 0.264-0.011 0.539-0.033 0.826-0.023 0.264-0.044 0.484-0.066 0.661h-13.378c0.088 0.881 0.341 1.652 0.76 2.312 0.44 0.661 0.991 1.167 1.652 1.519 0.682 0.33 1.409 0.495 2.18 0.495 0.881 0 1.706-0.209 2.477-0.628 0.793-0.44 1.332-1.013 1.619-1.718l3.799 1.057c-0.419 0.881-1.024 1.663-1.817 2.345-0.771 0.683-1.685 1.222-2.742 1.619-1.057 0.374-2.225 0.562-3.501 0.562zM109.162 14.072h9.051c-0.089-0.881-0.342-1.641-0.76-2.279-0.396-0.661-0.925-1.167-1.586-1.52-0.661-0.374-1.399-0.562-2.213-0.562-0.793 0-1.519 0.187-2.18 0.562-0.639 0.352-1.167 0.859-1.586 1.52-0.396 0.639-0.639 1.398-0.727 2.279z"></path>
            <path fill="#f5f4f4" style="fill: var(--color2, #f5f4f4)"
                d="M101.811 24.114h-4.426v-9.711c0-1.343-0.264-2.345-0.793-3.006-0.507-0.661-1.211-0.991-2.114-0.991-0.529 0-1.090 0.154-1.685 0.462s-1.134 0.738-1.619 1.288c-0.462 0.529-0.804 1.145-1.024 1.85v10.108h-4.426v-24.114h4.426v10.009c0.639-1.101 1.508-1.96 2.61-2.577s2.301-0.925 3.601-0.925c1.123 0 2.037 0.198 2.742 0.595 0.705 0.374 1.255 0.892 1.652 1.553 0.396 0.639 0.672 1.365 0.826 2.18 0.154 0.793 0.231 1.619 0.231 2.477v10.802z"></path>
            <path fill="#f5f4f4" style="fill: var(--color2, #f5f4f4)"
                d="M83.419 23.222c-0.374 0.154-0.826 0.33-1.354 0.529s-1.101 0.352-1.718 0.462c-0.595 0.132-1.2 0.198-1.817 0.198-0.815 0-1.564-0.143-2.246-0.429s-1.233-0.738-1.652-1.354c-0.396-0.639-0.595-1.464-0.595-2.477v-9.943h-2.279v-3.402h2.279v-5.615h4.426v5.615h3.634v3.402h-3.634v8.456c0.022 0.595 0.187 1.024 0.495 1.288s0.694 0.396 1.156 0.396c0.462 0 0.914-0.077 1.354-0.231s0.793-0.286 1.057-0.396l0.892 3.501z"></path>
            <path fill="#f5f4f4" style="fill: var(--color2, #f5f4f4)"
                d="M53.051 18.994c0-1.123 0.308-2.103 0.925-2.94 0.639-0.859 1.519-1.519 2.643-1.982s2.411-0.694 3.865-0.694c0.727 0 1.464 0.055 2.213 0.165s1.398 0.286 1.949 0.529v-0.925c0-1.101-0.33-1.949-0.991-2.543-0.639-0.595-1.597-0.892-2.874-0.892-0.947 0-1.85 0.165-2.709 0.495s-1.762 0.815-2.709 1.453l-1.42-2.907c1.145-0.749 2.312-1.31 3.501-1.685 1.211-0.374 2.477-0.562 3.799-0.562 2.466 0 4.382 0.617 5.748 1.85 1.387 1.233 2.081 2.995 2.081 5.285v5.516c0 0.462 0.077 0.793 0.231 0.991 0.176 0.198 0.451 0.319 0.826 0.363v3.601c-0.396 0.066-0.76 0.121-1.090 0.165-0.308 0.044-0.573 0.066-0.793 0.066-0.881 0-1.553-0.198-2.015-0.595-0.44-0.396-0.716-0.881-0.826-1.453l-0.099-0.892c-0.749 0.969-1.685 1.718-2.808 2.246s-2.268 0.793-3.435 0.793c-1.145 0-2.18-0.231-3.105-0.694-0.903-0.485-1.619-1.134-2.147-1.949-0.507-0.837-0.76-1.773-0.76-2.808zM63.82 19.885c0.242-0.264 0.44-0.529 0.595-0.793s0.231-0.507 0.231-0.727v-1.751c-0.529-0.22-1.101-0.385-1.718-0.495-0.617-0.132-1.2-0.198-1.751-0.198-1.145 0-2.092 0.253-2.841 0.76-0.727 0.484-1.090 1.134-1.090 1.949 0 0.44 0.121 0.859 0.363 1.255s0.595 0.716 1.057 0.958c0.462 0.242 1.013 0.363 1.652 0.363 0.661 0 1.31-0.121 1.949-0.363 0.639-0.264 1.156-0.584 1.553-0.958z"></path>
            <path fill="#f5f4f4" style="fill: var(--color2, #f5f4f4)"
                d="M42.494 24.444c-1.387 0-2.643-0.231-3.766-0.694-1.123-0.485-2.081-1.134-2.874-1.949-0.793-0.837-1.409-1.784-1.85-2.841-0.418-1.079-0.628-2.213-0.628-3.402 0-1.652 0.363-3.16 1.090-4.525 0.749-1.365 1.806-2.455 3.171-3.27 1.387-0.837 3.017-1.255 4.889-1.255 1.894 0 3.512 0.418 4.856 1.255 1.343 0.815 2.367 1.905 3.072 3.27 0.727 1.343 1.090 2.797 1.090 4.36 0 0.264-0.011 0.539-0.033 0.826-0.022 0.264-0.044 0.484-0.066 0.661h-13.378c0.088 0.881 0.341 1.652 0.76 2.312 0.44 0.661 0.991 1.167 1.652 1.519 0.683 0.33 1.409 0.495 2.18 0.495 0.881 0 1.707-0.209 2.477-0.628 0.793-0.44 1.332-1.013 1.619-1.718l3.799 1.057c-0.418 0.881-1.024 1.663-1.817 2.345-0.771 0.683-1.685 1.222-2.742 1.619-1.057 0.374-2.224 0.562-3.501 0.562zM37.969 14.072h9.051c-0.088-0.881-0.341-1.641-0.76-2.279-0.396-0.661-0.925-1.167-1.586-1.52-0.661-0.374-1.398-0.562-2.213-0.562-0.793 0-1.519 0.187-2.18 0.562-0.639 0.352-1.167 0.859-1.586 1.52-0.396 0.639-0.639 1.398-0.727 2.279z"></path>
            <path fill="#f5f4f4" style="fill: var(--color2, #f5f4f4)"
                d="M10.471 0.727h4.228l2.676 7.763 2.709-7.763h4.195l-4.030 10.669 2.973 7.465 6.639-18.201h4.955l-9.381 23.453h-3.931l-4.129-9.844-4.096 9.844h-3.931l-9.348-23.453h4.889l6.673 18.201 2.907-7.465-3.997-10.669z"></path>
        </symbol>
        <symbol id="cross" viewBox="0 0 32 32">
            <path stroke-width="1" stroke-miterlimit="4" stroke-linecap="butt"
                stroke-linejoin="miter"
                d="M1.301 3.903c-0.718-0.718-0.718-1.883-0-2.602s1.883-0.718 2.602-0l26.797 26.796c0.718 0.718 0.718 1.883 0 2.602s-1.883 0.719-2.602 0l-26.797-26.796z"></path>
            <path stroke-width="1" stroke-miterlimit="4" stroke-linecap="butt"
                stroke-linejoin="miter"
                d="M1.302 30.699c-0.718-0.718-0.718-1.883-0-2.602l26.796-26.797c0.718-0.718 1.883-0.718 2.602-0s0.718 1.883 0 2.602l-26.796 26.797c-0.718 0.718-1.883 0.718-2.602 0z"></path>
        </symbol>
        <symbol id="magnifying-glass" viewBox="0 0 32 32">
            <path fill="transparent" style="fill: 'transparent'" stroke-width="3.2"
                stroke-miterlimit="4" stroke-linecap="round" stroke-linejoin="round"
                d="M14.4 27.2c7.069 0 12.8-5.731 12.8-12.8s-5.731-12.8-12.8-12.8c-7.069 0-12.8 5.731-12.8 12.8s5.731 12.8 12.8 12.8z"></path>
            <path stroke-width="3.2" stroke-miterlimit="4" stroke-linecap="round"
                stroke-linejoin="round" d="M30.4 30.4l-6.96-6.96"></path>
        </symbol>
        <symbol id="left" viewBox="0 0 32 32">
            <path fill="transparent" style="fill: 'transparent'" stroke-linejoin="round" stroke-linecap="round" stroke-miterlimit="4"
                stroke-width="2.6667" d="M21.333 4l-12 12 12 12"></path>
        </symbol>
        <symbol id="right" viewBox="0 0 32 32">
            <path fill="transparent" style="fill: 'transparent'" stroke-linejoin="round" stroke-linecap="round" stroke-miterlimit="4"
                stroke-width="2.6667" d="M10.667 28l12-12-12-12"></path>
        </symbol>
    </defs>
</svg>