<svg aria-hidden="true" xmlns="http://www.w3.org/2000/svg"><defs><symbol id="logo" viewBox="0 0 198 32"><path fill="#202020" style="fill:var(--color1,#202020)" d="M190.226 24.444c-1.343 0-2.532-.297-3.567-.892a6.59 6.59 0 0 1-2.378-2.477V31.15h-4.426V6.805h3.865v2.973a7.201 7.201 0 0 1 2.51-2.378c1.014-.595 2.17-.892 3.468-.892 1.167 0 2.236.231 3.204.694a7.678 7.678 0 0 1 2.577 1.949 8.767 8.767 0 0 1 1.685 2.841c.419 1.057.628 2.202.628 3.435 0 1.674-.33 3.193-.991 4.558-.638 1.365-1.53 2.455-2.676 3.27-1.123.793-2.422 1.189-3.898 1.189zm-1.487-3.766c.683 0 1.3-.143 1.85-.429a4.492 4.492 0 0 0 1.42-1.156 5.04 5.04 0 0 0 .925-1.685c.221-.639.33-1.299.33-1.982 0-.727-.121-1.398-.363-2.015a4.517 4.517 0 0 0-.991-1.619 4.587 4.587 0 0 0-1.553-1.123 4.437 4.437 0 0 0-1.883-.396c-.418 0-.847.077-1.288.231-.418.132-.826.33-1.222.595s-.748.572-1.057.925a3.507 3.507 0 0 0-.628 1.156v4.063a6.758 6.758 0 0 0 1.057 1.751c.462.529.991.947 1.586 1.255a4.155 4.155 0 0 0 1.817.429zM169.29 24.444c-1.343 0-2.532-.297-3.567-.892a6.59 6.59 0 0 1-2.378-2.477V31.15h-4.426V6.805h3.865v2.973a7.201 7.201 0 0 1 2.51-2.378c1.013-.595 2.169-.892 3.468-.892 1.167 0 2.235.231 3.204.694a7.678 7.678 0 0 1 2.577 1.949 8.767 8.767 0 0 1 1.685 2.841c.418 1.057.628 2.202.628 3.435 0 1.674-.33 3.193-.991 4.558-.639 1.365-1.531 2.455-2.676 3.27-1.123.793-2.423 1.189-3.898 1.189zm-1.486-3.766c.682 0 1.3-.143 1.85-.429s1.024-.672 1.42-1.156a5.057 5.057 0 0 0 .925-1.685c.22-.639.33-1.299.33-1.982 0-.727-.121-1.398-.363-2.015a4.517 4.517 0 0 0-.991-1.619 4.596 4.596 0 0 0-1.553-1.123 4.446 4.446 0 0 0-1.883-.396c-.418 0-.847.077-1.288.231-.418.132-.826.33-1.222.595s-.748.572-1.057.925a3.507 3.507 0 0 0-.628 1.156v4.063a6.73 6.73 0 0 0 1.057 1.751c.462.529.991.947 1.586 1.255a4.155 4.155 0 0 0 1.817.429zM143.529.661h4.625l8.621 23.453h-4.691l-2.18-5.847h-8.192l-2.147 5.847h-4.691L143.528.661zm5.55 14.402-3.237-9.678-3.369 9.678h6.606z"/><path fill="#f5f4f4" style="fill:var(--color2,#f5f4f4)" d="M135.741 10.636c-1.344 0-2.543.264-3.601.793-1.057.507-1.817 1.244-2.279 2.213v10.471h-4.426V6.804h4.063v3.7c.616-1.189 1.398-2.125 2.345-2.808.947-.683 1.949-1.057 3.006-1.123h.562c.133 0 .242.011.33.033v4.03zM113.688 24.444c-1.387 0-2.643-.231-3.766-.694-1.123-.485-2.081-1.134-2.874-1.949a9.29 9.29 0 0 1-1.85-2.841 9.315 9.315 0 0 1-.628-3.402c0-1.652.363-3.16 1.09-4.525a8.522 8.522 0 0 1 3.171-3.27c1.387-.837 3.016-1.255 4.889-1.255 1.893 0 3.512.418 4.856 1.255 1.343.815 2.367 1.905 3.072 3.27a9.016 9.016 0 0 1 1.09 4.36c0 .264-.011.539-.033.826-.023.264-.044.484-.066.661h-13.378c.088.881.341 1.652.76 2.312.44.661.991 1.167 1.652 1.519.682.33 1.409.495 2.18.495.881 0 1.706-.209 2.477-.628.793-.44 1.332-1.013 1.619-1.718l3.799 1.057a7.102 7.102 0 0 1-1.817 2.345c-.771.683-1.685 1.222-2.742 1.619-1.057.374-2.225.562-3.501.562zm-4.526-10.372h9.051c-.089-.881-.342-1.641-.76-2.279a4.04 4.04 0 0 0-1.586-1.52 4.416 4.416 0 0 0-2.213-.562 4.34 4.34 0 0 0-2.18.562 4.355 4.355 0 0 0-1.586 1.52c-.396.639-.639 1.398-.727 2.279zM101.811 24.114h-4.426v-9.711c0-1.343-.264-2.345-.793-3.006-.507-.661-1.211-.991-2.114-.991-.529 0-1.09.154-1.685.462s-1.134.738-1.619 1.288a5.074 5.074 0 0 0-1.024 1.85v10.108h-4.426V0h4.426v10.009c.639-1.101 1.508-1.96 2.61-2.577s2.301-.925 3.601-.925c1.123 0 2.037.198 2.742.595a4.158 4.158 0 0 1 1.652 1.553c.396.639.672 1.365.826 2.18.154.793.231 1.619.231 2.477v10.802zM83.419 23.222c-.374.154-.826.33-1.354.529s-1.101.352-1.718.462a8.36 8.36 0 0 1-1.817.198c-.815 0-1.564-.143-2.246-.429s-1.233-.738-1.652-1.354c-.396-.639-.595-1.464-.595-2.477v-9.943h-2.279V6.806h2.279V1.191h4.426v5.615h3.634v3.402h-3.634v8.456c.022.595.187 1.024.495 1.288s.694.396 1.156.396c.462 0 .914-.077 1.354-.231s.793-.286 1.057-.396l.892 3.501zM53.051 18.994c0-1.123.308-2.103.925-2.94.639-.859 1.519-1.519 2.643-1.982s2.411-.694 3.865-.694c.727 0 1.464.055 2.213.165s1.398.286 1.949.529v-.925c0-1.101-.33-1.949-.991-2.543-.639-.595-1.597-.892-2.874-.892-.947 0-1.85.165-2.709.495s-1.762.815-2.709 1.453l-1.42-2.907a14.19 14.19 0 0 1 3.501-1.685 12.8 12.8 0 0 1 3.799-.562c2.466 0 4.382.617 5.748 1.85 1.387 1.233 2.081 2.995 2.081 5.285v5.516c0 .462.077.793.231.991.176.198.451.319.826.363v3.601c-.396.066-.76.121-1.09.165a5.739 5.739 0 0 1-.793.066c-.881 0-1.553-.198-2.015-.595a2.56 2.56 0 0 1-.826-1.453l-.099-.892c-.749.969-1.685 1.718-2.808 2.246s-2.268.793-3.435.793c-1.145 0-2.18-.231-3.105-.694-.903-.485-1.619-1.134-2.147-1.949-.507-.837-.76-1.773-.76-2.808zm10.769.891c.242-.264.44-.529.595-.793s.231-.507.231-.727v-1.751a8.212 8.212 0 0 0-1.718-.495 8.378 8.378 0 0 0-1.751-.198c-1.145 0-2.092.253-2.841.76-.727.484-1.09 1.134-1.09 1.949 0 .44.121.859.363 1.255s.595.716 1.057.958c.462.242 1.013.363 1.652.363a5.46 5.46 0 0 0 1.949-.363c.639-.264 1.156-.584 1.553-.958zM42.494 24.444c-1.387 0-2.643-.231-3.766-.694-1.123-.485-2.081-1.134-2.874-1.949a9.31 9.31 0 0 1-1.85-2.841 9.336 9.336 0 0 1-.628-3.402c0-1.652.363-3.16 1.09-4.525a8.536 8.536 0 0 1 3.171-3.27c1.387-.837 3.017-1.255 4.889-1.255 1.894 0 3.512.418 4.856 1.255 1.343.815 2.367 1.905 3.072 3.27a9.016 9.016 0 0 1 1.09 4.36c0 .264-.011.539-.033.826-.022.264-.044.484-.066.661H38.067c.088.881.341 1.652.76 2.312.44.661.991 1.167 1.652 1.519.683.33 1.409.495 2.18.495.881 0 1.707-.209 2.477-.628.793-.44 1.332-1.013 1.619-1.718l3.799 1.057a7.089 7.089 0 0 1-1.817 2.345c-.771.683-1.685 1.222-2.742 1.619-1.057.374-2.224.562-3.501.562zm-4.525-10.372h9.051c-.088-.881-.341-1.641-.76-2.279a4.04 4.04 0 0 0-1.586-1.52 4.414 4.414 0 0 0-2.213-.562 4.34 4.34 0 0 0-2.18.562 4.355 4.355 0 0 0-1.586 1.52c-.396.639-.639 1.398-.727 2.279zM10.471.727h4.228l2.676 7.763L20.084.727h4.195l-4.03 10.669 2.973 7.465L29.861.66h4.955l-9.381 23.453h-3.931l-4.129-9.844-4.096 9.844H9.348L0 .66h4.889l6.673 18.201 2.907-7.465L10.472.727z"/></symbol><symbol id="cross" viewBox="0 0 32 32"><path d="M1.301 3.903a1.84 1.84 0 0 1 2.602-2.602L30.7 28.097a1.84 1.84 0 0 1-2.602 2.602L1.301 3.903z"/><path d="M1.302 30.699a1.84 1.84 0 0 1 0-2.602L28.098 1.3A1.84 1.84 0 0 1 30.7 3.902L3.904 30.699a1.84 1.84 0 0 1-2.602 0z"/></symbol><symbol id="magnifying-glass" viewBox="0 0 32 32"><path fill="transparent" style="fill:&quot;transparent&quot;" stroke-width="3.2" stroke-linecap="round" stroke-linejoin="round" d="M14.4 27.2c7.069 0 12.8-5.731 12.8-12.8S21.469 1.6 14.4 1.6C7.331 1.6 1.6 7.331 1.6 14.4s5.731 12.8 12.8 12.8z"/><path stroke-width="3.2" stroke-linecap="round" stroke-linejoin="round" d="m30.4 30.4-6.96-6.96"/></symbol><symbol id="left" viewBox="0 0 32 32"><path fill="transparent" style="fill:&quot;transparent&quot;" stroke-linejoin="round" stroke-linecap="round" stroke-width="2.667" d="m21.333 4-12 12 12 12"/></symbol><symbol id="right" viewBox="0 0 32 32"><path fill="transparent" style="fill:&quot;transparent&quot;" stroke-linejoin="round" stroke-linecap="round" stroke-width="2.667" d="m10.667 28 12-12-12-12"/></symbol></defs></svg>